<svg width="40" height="13" viewBox="0 0 40 13" fill="none" xmlns="http://www.w3.org/2000/svg">
<g clip-path="url(#clip0_1_281)">
<path d="M18.5714 13.4288C18.3928 13.4288 18.1913 13.3378 18.0585 13.2035L7.65706 2.68645C7.52278 2.55068 7.43421 2.34845 7.43421 2.1679C7.43421 1.98734 7.52421 1.78368 7.65706 1.64934L8.77278 0.521232C8.90706 0.385454 9.08564 0.295898 9.28563 0.295898C9.46421 0.295898 9.66563 0.386898 9.79849 0.521232L18.5714 9.39156L27.3442 0.521232C27.4785 0.385454 27.6785 0.295898 27.8571 0.295898C28.0356 0.295898 28.2371 0.386898 28.3699 0.521232L29.4856 1.64934C29.6199 1.78512 29.7085 1.98734 29.7085 2.1679C29.7085 2.34845 29.6185 2.55212 29.4856 2.68645L19.0842 13.2035C18.9499 13.3392 18.7499 13.4288 18.5714 13.4288Z" fill="#2F2F2F"/>
</g>
<defs>
<clipPath id="clip0_1_281">
<rect x="40" width="13" height="40" rx="6.5" transform="rotate(90 40 0)" fill="white"/>
</clipPath>
</defs>
</svg>
