<svg width="16" height="26" viewBox="0 0 16 26" fill="none" xmlns="http://www.w3.org/2000/svg">
<g clip-path="url(#clip0_1_406)">
<path d="M0.441982 12.7438C0.441982 12.5437 0.547865 12.318 0.704167 12.1691L12.9411 0.512291C13.0991 0.361797 13.3344 0.262537 13.5445 0.262537C13.7546 0.262537 13.9916 0.3634 14.1479 0.512291L15.4605 1.76266C15.6185 1.91315 15.7227 2.11328 15.7227 2.33741C15.7227 2.53754 15.6168 2.76327 15.4605 2.91216L5.13946 12.7438L15.4605 22.5755C15.6185 22.726 15.7227 22.9501 15.7227 23.1502C15.7227 23.3503 15.6168 23.5761 15.4605 23.725L14.1479 24.9753C13.9899 25.1258 13.7546 25.2251 13.5445 25.2251C13.3344 25.2251 13.0974 25.1242 12.9411 24.9753L0.704167 13.3186C0.546185 13.1681 0.441982 12.9439 0.441982 12.7438Z" fill="white"/>
</g>
<defs>
<clipPath id="clip0_1_406">
<rect width="16" height="26" fill="white" transform="matrix(-1 0 0 -1 16 26)"/>
</clipPath>
</defs>
</svg>
