<svg width="55" height="55" viewBox="0 0 55 55" fill="none" xmlns="http://www.w3.org/2000/svg">
<g clip-path="url(#clip0_1_35)">
<path d="M20.0388 30.3433C20.0388 29.6543 19.48 29.0961 18.7904 29.0961H14.434C13.7453 29.0961 13.1863 29.6543 13.1863 30.3433V34.6991C13.1863 35.389 13.7453 35.9474 14.434 35.9474H18.7904C19.48 35.9474 20.0388 35.389 20.0388 34.6991V30.3433Z" fill="#E69A2F"/>
<path d="M30.9259 30.3433C30.9259 29.6543 30.367 29.0961 29.6788 29.0961H25.3219C24.6331 29.0961 24.0742 29.6543 24.0742 30.3433V34.6991C24.0742 35.389 24.6331 35.9474 25.3219 35.9474H29.6788C30.367 35.9474 30.9259 35.389 30.9259 34.6991V30.3433Z" fill="#E69A2F"/>
<path d="M41.8137 30.3433C41.8137 29.6543 41.2548 29.0961 40.566 29.0961H36.2097C35.5201 29.0961 34.9613 29.6543 34.9613 30.3433V34.6991C34.9613 35.389 35.5201 35.9474 36.2097 35.9474H40.566C41.2548 35.9474 41.8137 35.389 41.8137 34.6991V30.3433Z" fill="#E69A2F"/>
<path d="M20.0388 41.2315C20.0388 40.5414 19.48 39.9837 18.7904 39.9837H14.434C13.7453 39.9837 13.1863 40.5414 13.1863 41.2315V45.5865C13.1863 46.276 13.7453 46.8342 14.434 46.8342H18.7904C19.48 46.8342 20.0388 46.2759 20.0388 45.5865V41.2315Z" fill="#E69A2F"/>
<path d="M30.9259 41.2315C30.9259 40.5414 30.367 39.9837 29.6788 39.9837H25.3219C24.6331 39.9837 24.0742 40.5414 24.0742 41.2315V45.5865C24.0742 46.276 24.6331 46.8342 25.3219 46.8342H29.6788C30.367 46.8342 30.9259 46.2759 30.9259 45.5865V41.2315Z" fill="#E69A2F"/>
<path d="M41.8137 41.2315C41.8137 40.5414 41.2548 39.9837 40.5666 39.9837H36.2097C35.5201 39.9837 34.9613 40.5414 34.9613 41.2315V45.5865C34.9613 46.276 35.5201 46.8342 36.2097 46.8342H40.5666C41.2548 46.8342 41.8137 46.2759 41.8137 45.5865V41.2315Z" fill="#E69A2F"/>
<path d="M49.6034 6.12404V12.7772C49.6034 15.7844 47.1638 18.2077 44.1571 18.2077H40.7215C37.7146 18.2077 35.2427 15.7844 35.2427 12.7772V6.10016H19.7574V12.7772C19.7574 15.7844 17.2856 18.2077 14.2791 18.2077H10.8428C7.83621 18.2077 5.3968 15.7844 5.3968 12.7772V6.12404C2.769 6.20325 0.60968 8.37767 0.60968 11.0503V50.0409C0.60968 52.7638 2.81666 55.0001 5.53955 55.0001H49.4605C52.1793 55.0001 54.3904 52.7592 54.3904 50.0409V11.0503C54.3904 8.37767 52.2312 6.20325 49.6034 6.12404ZM48.0076 47.6129C48.0076 48.7896 47.0535 49.7443 45.8764 49.7443H9.02983C7.85266 49.7443 6.89857 48.7896 6.89857 47.6129V27.4728C6.89857 26.2957 7.85255 25.341 9.02983 25.341H45.8762C47.0534 25.341 48.0075 26.2957 48.0075 27.4728L48.0076 47.6129Z" fill="#E69A2F"/>
<path d="M10.8307 14.6409H14.2291C15.2606 14.6409 16.0969 13.8058 16.0969 12.7743V1.86728C16.0969 0.835672 15.2606 0 14.2291 0H10.8307C9.79913 0 8.96289 0.835672 8.96289 1.86728V12.7743C8.96289 13.8058 9.79913 14.6409 10.8307 14.6409Z" fill="#E69A2F"/>
<path d="M40.6777 14.6409H44.076C45.1068 14.6409 45.9432 13.8058 45.9432 12.7743V1.86728C45.9433 0.835672 45.1069 0 44.076 0H40.6777C39.6463 0 38.8099 0.835672 38.8099 1.86728V12.7743C38.8099 13.8058 39.6463 14.6409 40.6777 14.6409Z" fill="#E69A2F"/>
</g>
<defs>
<clipPath id="clip0_1_35">
<rect width="55" height="55" fill="white"/>
</clipPath>
</defs>
</svg>
