<svg width="90" height="90" viewBox="0 0 90 90" fill="none" xmlns="http://www.w3.org/2000/svg">
<path d="M39.375 28.1235V22.4985H5.625C2.52562 22.4985 0 25.0242 0 28.1235V39.3735H40.5619C39.78 35.9367 39.375 32.2354 39.375 28.1235Z" fill="#071C55" fill-opacity="0.8"/>
<path d="M89.7694 50.6235C85.9331 56.5354 80.0831 61.5642 71.7019 66.3792C70.4137 67.116 68.9625 67.4985 67.5 67.4985C66.0375 67.4985 64.5863 67.116 63.315 66.3904C54.9337 61.5642 49.0838 56.5298 45.2419 50.6235H0V78.7485C0 81.8535 2.52562 84.3735 5.625 84.3735H84.375C87.48 84.3735 90 81.8535 90 78.7485V50.6235H89.7694ZM25.3125 67.4985H14.0625C12.51 67.4985 11.25 66.2385 11.25 64.686C11.25 63.1335 12.51 61.8735 14.0625 61.8735H25.3125C26.865 61.8735 28.125 63.1335 28.125 64.686C28.125 66.2385 26.865 67.4985 25.3125 67.4985Z" fill="#071C55" fill-opacity="0.8"/>
<path d="M88.2956 14.2918L68.6081 5.85428C67.8937 5.55053 67.1006 5.55053 66.3862 5.85428L46.6988 14.2918C45.6694 14.7305 45 15.7487 45 16.8737V28.1237C45 43.598 50.7206 52.643 66.0994 61.5024C66.5325 61.7499 67.0163 61.8737 67.5 61.8737C67.9837 61.8737 68.4675 61.7499 68.9006 61.5024C84.2794 52.6655 90 43.6205 90 28.1237V16.8737C90 15.7487 89.3306 14.7305 88.2956 14.2918ZM78.1369 27.0718L66.8869 41.1343C66.3469 41.798 65.5369 42.1862 64.6875 42.1862C64.6481 42.1862 64.6031 42.1862 64.5694 42.1862C63.675 42.1468 62.8481 41.6855 62.3475 40.9374L56.7225 32.4999C55.8619 31.2062 56.2106 29.4624 57.5044 28.6018C58.7869 27.7468 60.5363 28.0843 61.4025 29.3837L64.8956 34.6205L73.7381 23.5618C74.7113 22.3524 76.4831 22.1612 77.6925 23.123C78.9075 24.0849 79.0987 25.8568 78.1369 27.0718Z" fill="#071C55" fill-opacity="0.8"/>
</svg>
