<svg width="118" height="30" viewBox="0 0 118 30" fill="none" xmlns="http://www.w3.org/2000/svg">
<rect x="78" width="40" height="2.43243" rx="1.21622" fill="white"/>
<rect x="86" y="13.7838" width="32" height="2.43243" rx="1.21622" fill="white"/>
<rect x="78" y="27.5676" width="40" height="2.43243" rx="1.21622" fill="white"/>
<path d="M2.88319 24V7.08H5.06719L11.5952 21.792H10.8752L17.4032 7.08H19.5632V24H17.3072V10.464H18.0992L12.0032 24H10.4432L4.34719 10.464H5.16319V24H2.88319ZM28.9774 24.216C27.0254 24.216 25.4894 23.664 24.3694 22.56C23.2494 21.456 22.6894 19.928 22.6894 17.976C22.6894 16.712 22.9294 15.608 23.4094 14.664C23.9054 13.72 24.5854 12.992 25.4494 12.48C26.3294 11.952 27.3454 11.688 28.4974 11.688C29.6334 11.688 30.5854 11.928 31.3534 12.408C32.1214 12.888 32.7054 13.568 33.1054 14.448C33.5054 15.312 33.7054 16.336 33.7054 17.52V18.288H24.5854V16.896H32.0494L31.6414 17.208C31.6414 16.008 31.3694 15.08 30.8254 14.424C30.2974 13.752 29.5294 13.416 28.5214 13.416C27.4014 13.416 26.5374 13.808 25.9294 14.592C25.3214 15.36 25.0174 16.424 25.0174 17.784V18.024C25.0174 19.448 25.3614 20.52 26.0494 21.24C26.7534 21.96 27.7454 22.32 29.0254 22.32C29.7294 22.32 30.3854 22.224 30.9934 22.032C31.6174 21.824 32.2094 21.488 32.7694 21.024L33.5614 22.68C33.0014 23.176 32.3214 23.56 31.5214 23.832C30.7214 24.088 29.8734 24.216 28.9774 24.216ZM36.4869 24V14.808C36.4869 14.344 36.4629 13.872 36.4149 13.392C36.3829 12.896 36.3429 12.4 36.2949 11.904H38.6469L38.8629 14.448H38.5749C38.9429 13.552 39.5109 12.872 40.2789 12.408C41.0469 11.928 41.9349 11.688 42.9429 11.688C44.3669 11.688 45.4389 12.08 46.1589 12.864C46.8949 13.648 47.2629 14.864 47.2629 16.512V24H44.8389V16.656C44.8389 15.584 44.6229 14.816 44.1909 14.352C43.7749 13.872 43.1349 13.632 42.2709 13.632C41.2469 13.632 40.4309 13.952 39.8229 14.592C39.2149 15.216 38.9109 16.064 38.9109 17.136V24H36.4869ZM55.0095 24.216C53.5535 24.216 52.4575 23.824 51.7215 23.04C51.0015 22.24 50.6415 21.016 50.6415 19.368V11.904H53.0655V19.32C53.0655 20.328 53.2735 21.072 53.6895 21.552C54.1055 22.032 54.7375 22.272 55.5855 22.272C56.5455 22.272 57.3215 21.952 57.9135 21.312C58.5055 20.672 58.8015 19.824 58.8015 18.768V11.904H61.2255V24H58.8735V21.408H59.1855C58.8495 22.304 58.3135 23 57.5775 23.496C56.8415 23.976 55.9855 24.216 55.0095 24.216Z" fill="white"/>
</svg>
