<svg width="90" height="90" viewBox="0 0 90 90" fill="none" xmlns="http://www.w3.org/2000/svg">
<g clip-path="url(#clip0_1_173)">
<path d="M78.7163 0H65.7174C64.8403 0 64.1292 0.711091 64.1292 1.58814V9.52885H53.5284V1.58814C53.5284 0.711091 52.8173 0 51.9403 0H38.052C37.1749 0 36.4638 0.711091 36.4638 1.58814V9.52885H25.8709V1.58814C25.8709 0.711091 25.1598 0 24.2828 0H11.2838C10.4068 0 9.69568 0.711091 9.69568 1.58814V18.6368C9.70441 22.9353 13.187 26.4179 17.4855 26.4267H17.5173H72.5146C76.8131 26.4179 80.2957 22.9353 80.3045 18.6368V1.58814C80.3045 0.711091 79.5934 0 78.7163 0Z" fill="#071C55" fill-opacity="0.8"/>
<path d="M71.2202 28.801H18.8115L16.5643 79.7883V80.2806C16.549 82.7041 17.3677 85.0594 18.883 86.9508C20.274 88.7399 22.363 89.8494 24.6241 90.0001H65.4155C67.6767 89.8494 69.7657 88.7399 71.1567 86.9508C72.672 85.0594 73.4907 82.7041 73.4754 80.2806C73.4754 80.1854 73.4754 80.0186 73.4754 79.7883L71.2202 28.801ZM57.0619 86.9032H32.9539V64.5422C32.9539 57.8783 38.356 52.4762 45.0198 52.4762C51.6837 52.4762 57.0857 57.8783 57.0857 64.5422L57.0619 86.9032Z" fill="#071C55" fill-opacity="0.8"/>
</g>
<defs>
<clipPath id="clip0_1_173">
<rect width="90" height="90" fill="white"/>
</clipPath>
</defs>
</svg>
