<svg width="55" height="55" viewBox="0 0 55 55" fill="none" xmlns="http://www.w3.org/2000/svg">
<g clip-path="url(#clip0_1_27)">
<path d="M51.2497 45.0001H42.4998C36.986 45.0001 32.5 40.5141 32.5 35.0003C32.5 29.4865 36.986 25.0005 42.4998 25.0005H51.2497C51.9406 25.0005 52.4997 24.4414 52.4997 23.7505V20.0005C52.4997 17.3793 50.4665 15.2476 47.8977 15.0409L40.7189 2.50202C40.0536 1.34235 38.9794 0.5135 37.694 0.169326C36.4147 -0.172505 35.0769 0.00702353 33.9319 0.673458L9.32253 15.0006H5.00038C2.24288 15.0006 0.000419617 17.2429 0.000419617 20.0005V50C0.000419617 52.7575 2.24277 55 5.00038 55H47.4997C50.2572 55 52.4997 52.7576 52.4997 50V46.2501C52.4997 45.5592 51.9406 45.0001 51.2497 45.0001ZM42.2691 10.2433L44.9928 15.0006H34.0979L42.2691 10.2433ZM14.2912 15.0006L35.1903 2.83401C35.7555 2.50319 36.4158 2.4153 37.047 2.58382C37.6854 2.75467 38.2177 3.16728 38.5485 3.74466L38.5511 3.74923L19.226 15.0006H14.2912Z" fill="#E69A2F"/>
<path d="M51.2495 27.5004H42.4996C38.3639 27.5004 34.9997 30.8645 34.9997 35.0002C34.9997 39.1359 38.3639 42.5001 42.4996 42.5001H51.2495C53.3173 42.5001 54.9994 40.818 54.9994 38.7502V31.2503C54.9994 29.1824 53.3173 27.5004 51.2495 27.5004ZM42.4996 37.5001C41.1215 37.5001 39.9997 36.3783 39.9997 35.0002C39.9997 33.6221 41.1215 32.5003 42.4996 32.5003C43.8777 32.5003 44.9995 33.6221 44.9995 35.0002C44.9996 36.3783 43.8778 37.5001 42.4996 37.5001Z" fill="#E69A2F"/>
</g>
<defs>
<clipPath id="clip0_1_27">
<rect width="55" height="55" fill="white"/>
</clipPath>
</defs>
</svg>
